<svg xmlns="http://www.w3.org/2000/svg" width="256" height="256" viewBox="0 0 256 256" shape-rendering="crispEdges">
  <!-- I SPY Phase 14C infrastructure sheet. 4x4 / 64px cells. Four-tone only. -->
  <defs><clipPath id="cell"><rect width="64" height="64"/></clipPath></defs>
  <rect width="256" height="256" fill="none"/>

  <!-- road_straight -->
  <g transform="translate(0 0)" clip-path="url(#cell)">
    <rect x="0" y="18" width="64" height="31" fill="#0B0B0B"/>
    <rect x="0" y="15" width="64" height="30" fill="#333333"/>
    <path d="M0 16h64v3H0zM0 41h64v3H0z" fill="#BDBDBD"/>
    <path d="M0 20h64v2H0zM0 38h64v2H0z" fill="#0B0B0B"/>
    <path d="M5 29h12v2H5zm21 0h12v2H26zm21 0h12v2H47z" fill="#BDBDBD"/>
    <path d="M9 24h9v1H9zM35 35h8v1h-8zM51 23h6v1h-6zM22 40h5v1h-5z" fill="#F6F6EE"/>
    <path d="M3 18h10v1H3zM44 42h12v1H44z" fill="#333333"/>
  </g>

  <!-- road_curve -->
  <g transform="translate(64 0)" clip-path="url(#cell)">
    <path d="M0 17h26c13 0 24 11 24 24v23H20V43c0-7-5-12-12-12H0z" fill="#0B0B0B"/>
    <path d="M0 14h27c14 0 26 12 26 26v24H23V42c0-8-6-14-14-14H0z" fill="#333333"/>
    <path d="M0 15h26c14 0 25 11 25 25v2h-4c0-12-9-21-21-21H0z" fill="#BDBDBD"/>
    <path d="M0 25h10c10 0 19 8 19 18v21h-4V44c0-8-7-15-15-15H0z" fill="#BDBDBD"/>
    <path d="M5 20h10v2H5zm16 4h8v2h-8zm11 9h7v2h-7zm7 11v10h2V44z" fill="#F6F6EE"/>
    <path d="M2 27h9c9 0 16 7 16 16v21h-2V44c0-8-6-14-14-14H2z" fill="#0B0B0B"/>
  </g>

  <!-- road_intersection -->
  <g transform="translate(128 0)" clip-path="url(#cell)">
    <path d="M0 18h20V0h28v18h16v30H48v16H20V48H0z" fill="#0B0B0B"/>
    <path d="M0 15h23V0h26v15h15v30H49v19H23V45H0z" fill="#333333"/>
    <path d="M0 16h23v3H0zM49 16h15v3H49zM0 41h23v3H0zM49 41h15v3H49zM24 0h3v15M45 0h3v15M24 45h3v19M45 45h3v19" fill="#BDBDBD"/>
    <path d="M5 29h10v2H5zm44 0h10v2H49zM35 5v10h-2V5zm0 44v10h-2V49z" fill="#BDBDBD"/>
    <path d="M18 23h5v2h-5zm26 16h5v2h-5zM26 18h2v5h-2zm16 24h2v5h-2z" fill="#F6F6EE"/>
  </g>

  <!-- dirt_track -->
  <g transform="translate(192 0)" clip-path="url(#cell)">
    <path d="M0 18c8 2 15 1 22-1 11-3 22 2 42 0v29c-14-2-27 3-41 0-9-2-16 0-23 2z" fill="#BDBDBD"/>
    <path d="M0 21c9 1 16 0 24-2 12-2 22 2 40 1v6c-18 1-28-3-40 0-8 2-16 3-24 2z" fill="#333333"/>
    <path d="M0 37c8-1 16-3 24-1 12 3 22-1 40 0v6c-18 1-28 4-40 1-8-2-16 0-24 1z" fill="#333333"/>
    <path d="M5 23h8v2H5zm16-2h7v2h-7zm19 2h10v2H40zM7 39h9v2H7zm17 0h8v2h-8zm21-1h11v2H45z" fill="#0B0B0B"/>
    <path d="M2 31h7v1H2zm13 2h6v1h-6zm17-3h8v1h-8zm17 2h6v1h-6z" fill="#F6F6EE"/>
  </g>

  <!-- rail -->
  <g transform="translate(0 64)" clip-path="url(#cell)">
    <rect x="0" y="18" width="64" height="30" fill="#BDBDBD"/>
    <path d="M0 21h64v5H0zM0 40h64v5H0z" fill="#0B0B0B"/>
    <path d="M0 22h64v2H0zM0 41h64v2H0z" fill="#F6F6EE"/>
    <path d="M5 17h4v32H5zm10 0h4v32h-4zm10 0h4v32h-4zm10 0h4v32h-4zm10 0h4v32h-4zm10 0h4v32h-4z" fill="#333333"/>
    <path d="M6 19h2v28H6zm20 0h2v28h-2zm20 0h2v28h-2z" fill="#0B0B0B"/>
  </g>

  <!-- bridge -->
  <g transform="translate(64 64)" clip-path="url(#cell)">
    <path d="M0 12h64v43H0z" fill="#0B0B0B"/>
    <path d="M0 9h64v42H0z" fill="#333333"/>
    <path d="M0 13h64v34H0z" fill="#BDBDBD"/>
    <path d="M0 18h64v24H0z" fill="#333333"/>
    <path d="M0 20h64v3H0zM0 37h64v3H0z" fill="#0B0B0B"/>
    <path d="M0 28h14v2H0zm21 0h14v2H21zm21 0h14v2H42z" fill="#BDBDBD"/>
    <path d="M4 10h4v41H4zm13 0h3v41h-3zm27 0h3v41h-3zm13 0h4v41h-4z" fill="#0B0B0B"/>
    <path d="M5 10h2v7H5zm13 0h1v7h-1zm27 0h1v7h-1zm13 0h2v7h-2z" fill="#F6F6EE"/>
  </g>

  <!-- fence -->
  <g transform="translate(128 64)" clip-path="url(#cell)">
    <path d="M0 34h64v4H0z" fill="#0B0B0B"/>
    <path d="M0 30h64v3H0z" fill="#333333"/>
    <path d="M0 31h64v1H0z" fill="#BDBDBD"/>
    <path d="M3 20h5v27H3zm14 0h5v27h-5zm14 0h5v27h-5zm14 0h5v27h-5zm14 0h5v27h-5z" fill="#0B0B0B"/>
    <path d="M4 18h4v27H4zm14 0h4v27h-4zm14 0h4v27h-4zm14 0h4v27h-4zm14 0h4v27h-4z" fill="#333333"/>
    <path d="M5 19h2v8H5zm14 0h2v8h-2zm14 0h2v8h-2zm14 0h2v8h-2zm14 0h2v8h-2z" fill="#BDBDBD"/>
    <path d="M7 27l11 10M21 27l11 10M35 27l11 10M49 27l11 10M18 27L7 37M32 27L21 37M46 27L35 37M60 27L49 37" stroke="#BDBDBD" stroke-width="1"/>
  </g>

  <!-- gate -->
  <g transform="translate(192 64)" clip-path="url(#cell)">
    <path d="M5 17h6v32H5zm48 0h6v32h-6z" fill="#0B0B0B"/>
    <path d="M4 15h6v32H4zm48 0h6v32h-6z" fill="#333333"/>
    <path d="M5 16h4v9H5zm48 0h4v9h-4z" fill="#BDBDBD"/>
    <path d="M10 24h19v17H10zM35 24h17v17H35z" fill="#333333"/>
    <path d="M11 25h17v3H11zm25 0h15v3H36z" fill="#BDBDBD"/>
    <path d="M11 26l17 15M28 26L11 41M36 26l15 15M51 26L36 41" stroke="#0B0B0B" stroke-width="2"/>
    <rect x="29" y="28" width="6" height="6" fill="#0B0B0B"/>
    <rect x="30" y="28" width="4" height="2" fill="#F6F6EE"/>
  </g>

  <!-- pole -->
  <g transform="translate(0 128)" clip-path="url(#cell)">
    <ellipse cx="35" cy="42" rx="12" ry="7" fill="#0B0B0B"/>
    <rect x="29" y="12" width="7" height="34" fill="#0B0B0B"/>
    <rect x="27" y="10" width="7" height="34" fill="#333333"/>
    <rect x="28" y="11" width="3" height="18" fill="#BDBDBD"/>
    <rect x="13" y="14" width="35" height="5" fill="#0B0B0B"/>
    <rect x="12" y="12" width="35" height="5" fill="#333333"/>
    <rect x="14" y="13" width="31" height="2" fill="#BDBDBD"/>
    <circle cx="16" cy="18" r="4" fill="#0B0B0B"/>
    <circle cx="31" cy="18" r="4" fill="#0B0B0B"/>
    <circle cx="44" cy="18" r="4" fill="#0B0B0B"/>
    <circle cx="15" cy="17" r="2" fill="#F6F6EE"/>
    <circle cx="30" cy="17" r="2" fill="#F6F6EE"/>
    <circle cx="43" cy="17" r="2" fill="#F6F6EE"/>
    <path d="M15 20l-6 12M43 20l7 12" stroke="#333333" stroke-width="2"/>
  </g>

  <!-- pipeline -->
  <g transform="translate(64 128)" clip-path="url(#cell)">
    <path d="M0 28h64v14H0z" fill="#0B0B0B"/>
    <path d="M0 24h64v14H0z" fill="#333333"/>
    <path d="M0 25h64v4H0z" fill="#BDBDBD"/>
    <path d="M12 22h5v18h-5zm17 0h5v18h-5zm17 0h5v18h-5z" fill="#0B0B0B"/>
    <path d="M13 23h3v7h-3zm17 0h3v7h-3zm17 0h3v7h-3z" fill="#F6F6EE"/>
    <path d="M8 38v12h7V38M37 38v12h7V38" stroke="#333333" stroke-width="3" fill="none"/>
    <path d="M6 50h12v4H6zm29 0h12v4H35z" fill="#0B0B0B"/>
  </g>

  <!-- farmhouse -->
  <g transform="translate(128 128)" clip-path="url(#cell)">
    <path d="M10 20h39l8 10v24H10z" fill="#0B0B0B" transform="translate(2 3)"/>
    <path d="M9 18h39l8 10v23H9z" fill="#333333"/>
    <path d="M11 19h35l7 8H14z" fill="#BDBDBD"/>
    <path d="M14 27h38v20H14z" fill="#333333"/>
    <rect x="18" y="30" width="9" height="8" fill="#0B0B0B"/>
    <rect x="19" y="30" width="7" height="3" fill="#F6F6EE"/>
    <rect x="36" y="30" width="9" height="8" fill="#0B0B0B"/>
    <rect x="37" y="30" width="7" height="3" fill="#F6F6EE"/>
    <rect x="28" y="38" width="9" height="13" fill="#0B0B0B"/>
    <rect x="30" y="39" width="5" height="4" fill="#BDBDBD"/>
    <rect x="15" y="17" width="5" height="8" fill="#0B0B0B"/>
    <rect x="15" y="16" width="4" height="5" fill="#BDBDBD"/>
    <path d="M11 47h42v4H11z" fill="#0B0B0B"/>
  </g>

  <!-- barn -->
  <g transform="translate(192 128)" clip-path="url(#cell)">
    <path d="M8 21l11-9h28l10 9v34H8z" fill="#0B0B0B" transform="translate(2 3)"/>
    <path d="M7 19l11-9h28l10 9v33H7z" fill="#333333"/>
    <path d="M10 19l10-7h24l8 7H10z" fill="#BDBDBD"/>
    <path d="M10 23h43v25H10z" fill="#333333"/>
    <path d="M15 29h14v19H15zM33 29h14v19H33z" fill="#0B0B0B"/>
    <path d="M16 30l12 17M28 30L16 47M34 30l12 17M46 30L34 47" stroke="#BDBDBD" stroke-width="2"/>
    <path d="M20 12v10M43 12v10" stroke="#0B0B0B" stroke-width="2"/>
    <rect x="28" y="16" width="8" height="7" fill="#0B0B0B"/>
    <rect x="29" y="16" width="6" height="3" fill="#F6F6EE"/>
  </g>

  <!-- warehouse -->
  <g transform="translate(0 192)" clip-path="url(#cell)">
    <path d="M7 15h50v39H7z" fill="#0B0B0B" transform="translate(3 4)"/>
    <rect x="6" y="13" width="50" height="39" fill="#333333"/>
    <path d="M8 15h46v7H8z" fill="#BDBDBD"/>
    <path d="M12 24h38v24H12z" fill="#333333"/>
    <path d="M14 28h13v20H14zM32 28h16v20H32z" fill="#0B0B0B"/>
    <path d="M15 29h11v4H15zm18 0h14v4H33z" fill="#BDBDBD"/>
    <path d="M10 17h42M10 20h42" stroke="#F6F6EE" stroke-width="1"/>
    <rect x="8" y="48" width="46" height="4" fill="#0B0B0B"/>
    <rect x="47" y="16" width="5" height="8" fill="#0B0B0B"/>
  </g>

  <!-- barracks -->
  <g transform="translate(64 192)" clip-path="url(#cell)">
    <path d="M8 17h49v37H8z" fill="#0B0B0B" transform="translate(3 3)"/>
    <rect x="7" y="15" width="49" height="37" fill="#333333"/>
    <path d="M9 17h45v8H9z" fill="#BDBDBD"/>
    <path d="M11 27h41v21H11z" fill="#333333"/>
    <path d="M14 29h7v7h-7zm11 0h7v7h-7zm11 0h7v7h-7zm11 0h4v7h-4z" fill="#0B0B0B"/>
    <path d="M15 29h5v2h-5zm11 0h5v2h-5zm11 0h5v2h-5z" fill="#F6F6EE"/>
    <rect x="27" y="38" width="9" height="14" fill="#0B0B0B"/>
    <rect x="29" y="39" width="5" height="3" fill="#BDBDBD"/>
    <path d="M9 23h45v2H9z" fill="#0B0B0B"/>
  </g>

  <!-- bunker -->
  <g transform="translate(128 192)" clip-path="url(#cell)">
    <ellipse cx="34" cy="37" rx="28" ry="19" fill="#0B0B0B"/>
    <ellipse cx="31" cy="33" rx="28" ry="19" fill="#333333"/>
    <path d="M6 33c5-13 17-20 31-18 10 1 18 7 22 16-16-5-34-5-53 2z" fill="#BDBDBD"/>
    <path d="M14 27h36v24H14z" fill="#0B0B0B"/>
    <path d="M16 25h32v22H16z" fill="#333333"/>
    <path d="M18 26h28v5H18z" fill="#BDBDBD"/>
    <rect x="24" y="33" width="16" height="14" fill="#0B0B0B"/>
    <rect x="26" y="33" width="12" height="3" fill="#333333"/>
    <path d="M12 47h40v5H12z" fill="#333333"/>
    <path d="M9 31h6v2H9zm40 0h6v2h-6z" fill="#F6F6EE"/>
  </g>

  <!-- hangar -->
  <g transform="translate(192 192)" clip-path="url(#cell)">
    <path d="M6 20c0-8 10-13 26-13s26 5 26 13v34H6z" fill="#0B0B0B" transform="translate(2 3)"/>
    <path d="M5 18c0-8 10-13 27-13s27 5 27 13v33H5z" fill="#333333"/>
    <path d="M8 18c1-6 10-10 24-10s23 4 24 10H8z" fill="#BDBDBD"/>
    <path d="M10 21h44v27H10z" fill="#333333"/>
    <path d="M14 25h36v23H14z" fill="#0B0B0B"/>
    <path d="M16 27h32v4H16z" fill="#BDBDBD"/>
    <path d="M18 25v23M26 25v23M34 25v23M42 25v23" stroke="#333333" stroke-width="2"/>
    <path d="M10 19h44v3H10z" fill="#0B0B0B"/>
    <path d="M17 11h30M13 14h38" stroke="#F6F6EE" stroke-width="1"/>
  </g>
</svg>